# xmcd
#
# Track frame offsets:
#	150
#	12346
#	24271
#	40040
#	52618
#	65646
#	85549
#	99803
#	111686
#	122283
#	136942
#	147912
#	160175
#
# Disc length: 2276 seconds
#
# Revision: 0
# Processed by: cddbd v1.5.1PL0 Copyright (c) Steve Scherf et al.
# Submitted via: EasyCDDAExtractor 8.0.1.1
#
DISCID=9708e20d
DTITLE=Grass Cats - The Blues Are Back In Town
DYEAR=2002
DGENRE=Bluegrass
TTITLE0=Bluegrass Man
TTITLE1=The Blues Are Back In Town
TTITLE2=Oh Stephanie
TTITLE3=Ain't No Sunshine
TTITLE4=Love Is As Simple As This
TTITLE5=Johnson's Love
TTITLE6=We Can't Go Wrong
TTITLE7=Copperhead Road
TTITLE8=Likes Of You
TTITLE9=No One Knows
TTITLE10=Sixteen Tons
TTITLE11=Girl Of My Dreams
TTITLE12=I've Lived Alot In My Time
EXTD=
EXTT0=
EXTT1=
EXTT2=
EXTT3=
EXTT4=
EXTT5=
EXTT6=
EXTT7=
EXTT8=
EXTT9=
EXTT10=
EXTT11=
EXTT12=
PLAYORDER=
